<svg xmlns="http://www.w3.org/2000/svg" xmlns:xlink="http://www.w3.org/1999/xlink" width="500" zoomAndPan="magnify" viewBox="0 0 375 112.499997" height="150" preserveAspectRatio="xMidYMid meet" version="1.2"><defs><clipPath id="9f37ec3afc"><path d="M 15 3 L 133 3 L 133 109.761719 L 15 109.761719 Z M 15 3 "/></clipPath></defs><g id="62b73d4857"><g clip-rule="nonzero" clip-path="url(#9f37ec3afc)"><path style=" stroke:none;fill-rule:nonzero;fill:#38b6ff;fill-opacity:1;" d="M 130.585938 47.039062 C 129.464844 49.929688 128.113281 52.710938 126.53125 55.378906 C 125.953125 56.378906 125.308594 57.457031 124.582031 58.597656 C 119.457031 66.652344 110.464844 78.054688 95.132812 91.386719 L 74.140625 109.609375 L 53.152344 91.386719 C 39.164062 79.226562 30.472656 68.667969 25.179688 60.785156 C 24.386719 59.644531 23.722656 58.574219 23.089844 57.558594 C 20.957031 54.222656 19.160156 50.714844 17.695312 47.039062 C 17.355469 46.132812 17.058594 45.210938 16.804688 44.277344 C 16.550781 43.34375 16.335938 42.398438 16.167969 41.445312 C 16 40.492188 15.871094 39.535156 15.789062 38.570312 C 15.707031 37.605469 15.671875 36.640625 15.675781 35.671875 C 15.679688 34.703125 15.730469 33.738281 15.824219 32.773438 C 15.917969 31.8125 16.054688 30.855469 16.234375 29.902344 C 16.414062 28.953125 16.636719 28.011719 16.902344 27.078125 C 17.167969 26.148438 17.476562 25.230469 17.824219 24.328125 C 18.171875 23.425781 18.5625 22.539062 18.992188 21.671875 C 19.421875 20.804688 19.886719 19.957031 20.394531 19.132812 C 20.902344 18.308594 21.441406 17.507812 22.023438 16.730469 C 22.601562 15.957031 23.214844 15.207031 23.859375 14.488281 C 24.507812 13.765625 25.183594 13.078125 25.894531 12.417969 C 26.601562 11.761719 27.339844 11.136719 28.105469 10.542969 C 28.875 9.953125 29.664062 9.394531 30.480469 8.875 C 31.296875 8.355469 32.136719 7.875 32.996094 7.429688 C 33.855469 6.988281 34.734375 6.582031 35.632812 6.21875 C 36.53125 5.855469 37.441406 5.53125 38.367188 5.25 C 39.292969 4.96875 40.230469 4.730469 41.179688 4.535156 C 42.125 4.339844 43.082031 4.1875 44.042969 4.078125 C 45.003906 3.96875 45.96875 3.902344 46.9375 3.878906 C 47.90625 3.859375 48.871094 3.882812 49.835938 3.945312 C 50.804688 4.011719 51.765625 4.121094 52.71875 4.277344 C 53.675781 4.429688 54.621094 4.625 55.5625 4.863281 C 56.5 5.105469 57.425781 5.386719 58.335938 5.707031 C 59.25 6.03125 60.144531 6.394531 61.023438 6.800781 C 61.902344 7.203125 62.761719 7.648438 63.601562 8.132812 C 64.441406 8.613281 65.257812 9.132812 66.046875 9.691406 C 66.839844 10.246094 67.605469 10.839844 68.34375 11.464844 C 69.082031 12.089844 69.789062 12.75 70.46875 13.4375 C 71.148438 14.128906 71.792969 14.847656 72.40625 15.597656 C 73.019531 16.347656 73.597656 17.121094 74.140625 17.925781 C 74.683594 17.121094 75.261719 16.347656 75.875 15.597656 C 76.488281 14.847656 77.132812 14.128906 77.8125 13.4375 C 78.488281 12.75 79.199219 12.089844 79.9375 11.464844 C 80.675781 10.839844 81.441406 10.246094 82.230469 9.691406 C 83.023438 9.132812 83.839844 8.613281 84.679688 8.132812 C 85.515625 7.648438 86.375 7.203125 87.257812 6.800781 C 88.136719 6.394531 89.03125 6.03125 89.945312 5.707031 C 90.855469 5.386719 91.78125 5.105469 92.71875 4.863281 C 93.65625 4.625 94.605469 4.429688 95.558594 4.277344 C 96.515625 4.121094 97.476562 4.011719 98.441406 3.945312 C 99.40625 3.882812 100.375 3.859375 101.34375 3.878906 C 102.308594 3.902344 103.273438 3.96875 104.238281 4.078125 C 105.199219 4.1875 106.152344 4.339844 107.101562 4.535156 C 108.050781 4.730469 108.988281 4.96875 109.914062 5.25 C 110.839844 5.53125 111.75 5.855469 112.648438 6.21875 C 113.542969 6.582031 114.421875 6.988281 115.285156 7.429688 C 116.144531 7.875 116.984375 8.355469 117.800781 8.875 C 118.617188 9.394531 119.40625 9.953125 120.171875 10.542969 C 120.9375 11.136719 121.675781 11.761719 122.386719 12.417969 C 123.09375 13.078125 123.773438 13.765625 124.421875 14.488281 C 125.066406 15.207031 125.679688 15.957031 126.257812 16.730469 C 126.835938 17.507812 127.378906 18.308594 127.886719 19.132812 C 128.390625 19.957031 128.859375 20.804688 129.289062 21.671875 C 129.71875 22.539062 130.105469 23.425781 130.457031 24.328125 C 130.804688 25.230469 131.113281 26.148438 131.378906 27.078125 C 131.644531 28.011719 131.867188 28.953125 132.046875 29.902344 C 132.226562 30.855469 132.363281 31.8125 132.457031 32.773438 C 132.550781 33.738281 132.597656 34.703125 132.605469 35.671875 C 132.609375 36.640625 132.570312 37.605469 132.488281 38.570312 C 132.40625 39.535156 132.28125 40.492188 132.113281 41.445312 C 131.941406 42.398438 131.730469 43.34375 131.476562 44.277344 C 131.222656 45.210938 130.925781 46.132812 130.585938 47.039062 Z M 130.585938 47.039062 "/><path style=" stroke:none;fill-rule:nonzero;fill:#ffffff;fill-opacity:1;" d="M 111.785156 5.90625 C 110.121094 5.285156 108.414062 4.808594 106.664062 4.472656 C 104.917969 4.140625 103.15625 3.949219 101.378906 3.910156 C 99.601562 3.867188 97.832031 3.972656 96.070312 4.226562 C 94.3125 4.480469 92.582031 4.875 90.890625 5.417969 C 89.195312 5.957031 87.558594 6.636719 85.976562 7.449219 C 84.394531 8.261719 82.890625 9.203125 81.464844 10.265625 C 80.039062 11.332031 78.714844 12.503906 77.484375 13.789062 C 76.253906 15.074219 75.140625 16.453125 74.140625 17.925781 C 73.597656 17.125 73.019531 16.347656 72.40625 15.601562 C 71.792969 14.851562 71.144531 14.132812 70.46875 13.445312 C 69.789062 12.753906 69.082031 12.097656 68.34375 11.472656 C 67.605469 10.847656 66.839844 10.257812 66.046875 9.703125 C 65.253906 9.144531 64.4375 8.628906 63.601562 8.144531 C 62.761719 7.664062 61.902344 7.222656 61.023438 6.816406 C 60.144531 6.414062 59.25 6.050781 58.335938 5.726562 C 57.425781 5.40625 56.5 5.125 55.5625 4.886719 C 54.625 4.648438 53.679688 4.453125 52.722656 4.300781 C 51.769531 4.148438 50.808594 4.039062 49.84375 3.972656 C 48.878906 3.90625 47.910156 3.886719 46.945312 3.90625 C 45.976562 3.929688 45.011719 3.996094 44.050781 4.105469 C 43.089844 4.214844 42.136719 4.367188 41.1875 4.5625 C 40.242188 4.757812 39.304688 5 38.378906 5.277344 C 37.453125 5.558594 36.542969 5.882812 35.648438 6.246094 C 34.75 6.609375 33.871094 7.015625 33.011719 7.457031 C 32.152344 7.902344 31.316406 8.382812 30.5 8.902344 C 29.683594 9.421875 28.890625 9.976562 28.125 10.570312 C 27.359375 11.160156 26.625 11.785156 25.914062 12.441406 C 25.207031 13.101562 24.527344 13.789062 23.882812 14.507812 C 23.234375 15.230469 22.621094 15.976562 22.042969 16.753906 C 21.464844 17.527344 20.921875 18.328125 20.417969 19.152344 C 19.910156 19.976562 19.441406 20.820312 19.015625 21.6875 C 18.585938 22.554688 18.195312 23.441406 17.847656 24.34375 C 17.496094 25.246094 17.191406 26.160156 16.925781 27.089844 C 16.660156 28.023438 16.433594 28.960938 16.253906 29.914062 C 16.074219 30.863281 15.9375 31.820312 15.84375 32.78125 C 15.75 33.746094 15.699219 34.710938 15.695312 35.675781 C 15.6875 36.644531 15.726562 37.609375 15.804688 38.574219 C 15.886719 39.539062 16.011719 40.496094 16.179688 41.449219 C 16.351562 42.402344 16.5625 43.34375 16.816406 44.277344 C 17.070312 45.210938 17.363281 46.132812 17.703125 47.039062 C 19.15625 50.714844 20.945312 54.222656 23.074219 57.558594 C 23.699219 58.550781 24.386719 59.644531 25.179688 60.785156 C 30.496094 68.707031 39.1875 79.226562 53.1875 91.386719 L 74.164062 109.609375 L 95.15625 91.386719 C 110.464844 78.054688 119.457031 66.652344 124.582031 58.550781 C 125.308594 57.417969 125.960938 56.332031 126.539062 55.332031 C 128.117188 52.667969 129.46875 49.894531 130.59375 47.007812 C 130.957031 46.027344 131.273438 45.027344 131.539062 44.015625 C 131.808594 43.003906 132.023438 41.980469 132.191406 40.949219 C 132.355469 39.914062 132.472656 38.875 132.535156 37.832031 C 132.601562 36.789062 132.613281 35.742188 132.574219 34.695312 C 132.535156 33.648438 132.449219 32.609375 132.308594 31.570312 C 132.167969 30.535156 131.976562 29.507812 131.734375 28.488281 C 131.492188 27.46875 131.199219 26.464844 130.859375 25.476562 C 130.519531 24.484375 130.132812 23.515625 129.699219 22.5625 C 129.261719 21.613281 128.78125 20.683594 128.253906 19.78125 C 127.726562 18.875 127.15625 18 126.546875 17.148438 C 125.933594 16.300781 125.28125 15.484375 124.585938 14.699219 C 123.894531 13.914062 123.164062 13.167969 122.398438 12.453125 C 121.632812 11.742188 120.832031 11.066406 120 10.433594 C 119.167969 9.800781 118.304688 9.207031 117.414062 8.65625 C 116.523438 8.109375 115.609375 7.605469 114.667969 7.144531 C 113.726562 6.683594 112.765625 6.273438 111.785156 5.90625 Z M 93.011719 88.953125 L 74.140625 105.363281 L 55.285156 88.953125 C 44.375 79.488281 35.574219 70.019531 29.070312 60.785156 L 76.492188 60.785156 L 82.039062 39.394531 L 89.558594 86.03125 L 98.746094 48.503906 L 103.160156 70.328125 L 107.777344 58.550781 L 120.730469 58.550781 C 115.898438 65.789062 107.375 76.460938 93.011719 88.953125 Z M 127.566406 45.914062 C 126.507812 48.625 125.234375 51.234375 123.75 53.742188 L 122.789062 55.324219 L 105.582031 55.277344 L 104.164062 58.898438 L 99.046875 33.691406 L 90.230469 69.78125 L 82.792969 23.691406 L 74.003906 57.558594 L 26.890625 57.558594 C 26.511719 56.980469 26.15625 56.410156 25.816406 55.863281 C 23.804688 52.707031 22.101562 49.390625 20.710938 45.914062 C 20.410156 45.097656 20.140625 44.269531 19.914062 43.429688 C 19.683594 42.589844 19.492188 41.742188 19.34375 40.886719 C 19.191406 40.03125 19.078125 39.167969 19.003906 38.300781 C 18.929688 37.433594 18.894531 36.566406 18.902344 35.695312 C 18.90625 34.824219 18.949219 33.957031 19.035156 33.089844 C 19.117188 32.226562 19.242188 31.363281 19.402344 30.507812 C 19.566406 29.65625 19.765625 28.808594 20.003906 27.972656 C 20.242188 27.136719 20.519531 26.3125 20.832031 25.5 C 21.148438 24.6875 21.496094 23.890625 21.882812 23.113281 C 22.269531 22.332031 22.691406 21.570312 23.144531 20.828125 C 23.597656 20.085938 24.085938 19.367188 24.609375 18.671875 C 25.128906 17.972656 25.679688 17.300781 26.261719 16.652344 C 26.839844 16.003906 27.449219 15.386719 28.089844 14.792969 C 28.726562 14.203125 29.390625 13.640625 30.078125 13.109375 C 30.765625 12.574219 31.476562 12.074219 32.210938 11.609375 C 32.945312 11.140625 33.699219 10.707031 34.472656 10.308594 C 35.246094 9.910156 36.035156 9.546875 36.84375 9.21875 C 37.648438 8.890625 38.46875 8.601562 39.300781 8.347656 C 40.132812 8.097656 40.976562 7.882812 41.828125 7.707031 C 42.679688 7.527344 43.539062 7.390625 44.402344 7.292969 C 45.265625 7.195312 46.132812 7.136719 47.003906 7.117188 C 47.875 7.097656 48.742188 7.117188 49.609375 7.175781 C 50.480469 7.234375 51.34375 7.332031 52.203125 7.46875 C 53.0625 7.605469 53.914062 7.785156 54.757812 7.996094 C 55.597656 8.210938 56.429688 8.464844 57.25 8.753906 C 58.070312 9.046875 58.878906 9.371094 59.667969 9.734375 C 60.457031 10.097656 61.230469 10.496094 61.984375 10.929688 C 62.738281 11.363281 63.472656 11.832031 64.183594 12.332031 C 64.898438 12.832031 65.585938 13.363281 66.25 13.925781 C 66.914062 14.488281 67.550781 15.078125 68.160156 15.699219 C 68.769531 16.320312 69.351562 16.96875 69.902344 17.640625 C 70.453125 18.3125 70.972656 19.011719 71.460938 19.730469 L 74.140625 23.691406 L 76.808594 19.730469 C 77.296875 19.011719 77.820312 18.316406 78.371094 17.644531 C 78.921875 16.972656 79.503906 16.324219 80.113281 15.707031 C 80.726562 15.085938 81.363281 14.496094 82.027344 13.933594 C 82.691406 13.375 83.378906 12.84375 84.089844 12.34375 C 84.800781 11.84375 85.535156 11.378906 86.289062 10.945312 C 87.042969 10.511719 87.816406 10.117188 88.605469 9.753906 C 89.398438 9.390625 90.203125 9.066406 91.023438 8.773438 C 91.84375 8.484375 92.675781 8.234375 93.515625 8.019531 C 94.359375 7.804688 95.210938 7.628906 96.070312 7.492188 C 96.929688 7.355469 97.792969 7.257812 98.660156 7.199219 C 99.527344 7.140625 100.394531 7.121094 101.265625 7.140625 C 102.132812 7.160156 103 7.21875 103.867188 7.320312 C 104.730469 7.417969 105.585938 7.554688 106.4375 7.730469 C 107.289062 7.910156 108.132812 8.121094 108.964844 8.375 C 109.796875 8.628906 110.613281 8.917969 111.421875 9.246094 C 112.226562 9.574219 113.015625 9.9375 113.789062 10.335938 C 114.5625 10.734375 115.316406 11.164062 116.046875 11.632812 C 116.78125 12.101562 117.492188 12.597656 118.179688 13.128906 C 118.871094 13.660156 119.53125 14.222656 120.171875 14.816406 C 120.808594 15.40625 121.417969 16.027344 122 16.671875 C 122.578125 17.320312 123.128906 17.992188 123.652344 18.6875 C 124.171875 19.386719 124.660156 20.105469 125.113281 20.84375 C 125.570312 21.585938 125.988281 22.347656 126.375 23.125 C 126.761719 23.90625 127.113281 24.699219 127.425781 25.511719 C 127.738281 26.320312 128.015625 27.144531 128.257812 27.980469 C 128.496094 28.816406 128.695312 29.664062 128.859375 30.515625 C 129.023438 31.371094 129.144531 32.230469 129.230469 33.097656 C 129.316406 33.960938 129.359375 34.828125 129.367188 35.699219 C 129.371094 36.570312 129.339844 37.4375 129.265625 38.304688 C 129.195312 39.171875 129.082031 40.03125 128.929688 40.886719 C 128.78125 41.746094 128.589844 42.59375 128.363281 43.433594 C 128.136719 44.269531 127.871094 45.097656 127.566406 45.914062 Z M 127.566406 45.914062 "/></g><g style="fill:#000000;fill-opacity:1;"><g transform="translate(142.53729, 65.334619)"><path style="stroke:none" d="M 1.40625 -2.140625 C 1 -2.648438 0.796875 -3.035156 0.796875 -3.296875 C 0.796875 -3.566406 1.023438 -3.929688 1.484375 -4.390625 C 1.941406 -4.847656 2.242188 -5.097656 2.390625 -5.140625 C 2.535156 -5.179688 2.675781 -5.203125 2.8125 -5.203125 C 2.957031 -5.203125 3.1875 -5.113281 3.5 -4.9375 C 4.945312 -3.800781 6.21875 -3.234375 7.3125 -3.234375 C 8.40625 -3.234375 9.117188 -3.484375 9.453125 -3.984375 C 9.785156 -4.492188 9.953125 -5.160156 9.953125 -5.984375 C 9.953125 -6.804688 9.65625 -7.472656 9.0625 -7.984375 C 8.476562 -8.492188 7.515625 -9.109375 6.171875 -9.828125 C 4.835938 -10.554688 3.671875 -11.5 2.671875 -12.65625 C 1.671875 -13.8125 1.171875 -15.003906 1.171875 -16.234375 C 1.171875 -18.429688 1.742188 -20.03125 2.890625 -21.03125 C 4.035156 -22.039062 5.710938 -22.546875 7.921875 -22.546875 C 9.273438 -22.546875 10.597656 -22.222656 11.890625 -21.578125 C 12.578125 -21.304688 12.898438 -21.023438 12.859375 -20.734375 C 12.835938 -20.609375 12.816406 -20.429688 12.796875 -20.203125 C 12.429688 -19.140625 12.148438 -18.53125 11.953125 -18.375 C 11.890625 -18.332031 11.753906 -18.3125 11.546875 -18.3125 C 11.347656 -18.3125 10.804688 -18.472656 9.921875 -18.796875 C 9.046875 -19.128906 8.296875 -19.296875 7.671875 -19.296875 C 7.054688 -19.296875 6.539062 -19.078125 6.125 -18.640625 C 5.71875 -18.210938 5.515625 -17.609375 5.515625 -16.828125 C 5.515625 -16.046875 5.867188 -15.332031 6.578125 -14.6875 C 7.285156 -14.050781 8.367188 -13.394531 9.828125 -12.71875 C 11.378906 -11.914062 12.539062 -11.082031 13.3125 -10.21875 C 14.082031 -9.351562 14.46875 -8.195312 14.46875 -6.75 C 14.46875 -1.9375 12.4375 0.46875 8.375 0.46875 C 5.332031 0.46875 3.007812 -0.398438 1.40625 -2.140625 Z M 1.40625 -2.140625 "/></g></g><g style="fill:#000000;fill-opacity:1;"><g transform="translate(160.796039, 65.334619)"><path style="stroke:none" d="M 1.375 0 L 1.375 -14.5625 C 1.375 -14.875 1.726562 -15.03125 2.4375 -15.03125 C 3.144531 -15.03125 3.8125 -14.976562 4.4375 -14.875 C 5.0625 -14.78125 5.375 -14.675781 5.375 -14.5625 L 5.375 0 C 5.375 0.113281 5.363281 0.191406 5.34375 0.234375 C 5.25 0.390625 4.878906 0.46875 4.234375 0.46875 C 3.585938 0.46875 2.945312 0.414062 2.3125 0.3125 C 1.6875 0.21875 1.375 0.113281 1.375 0 Z M 3.203125 -18.3125 C 1.796875 -18.3125 1.09375 -19.015625 1.09375 -20.421875 C 1.09375 -21.835938 1.796875 -22.546875 3.203125 -22.546875 C 4.609375 -22.546875 5.3125 -21.835938 5.3125 -20.421875 C 5.3125 -19.015625 4.609375 -18.3125 3.203125 -18.3125 Z M 3.203125 -18.3125 "/></g></g><g style="fill:#000000;fill-opacity:1;"><g transform="translate(170.395365, 65.334619)"><path style="stroke:none" d="M 16.359375 0 L 16.359375 -8.921875 C 16.359375 -11.117188 16.203125 -12.21875 15.890625 -12.21875 C 15.203125 -12.21875 14.210938 -11.832031 12.921875 -11.0625 C 13.015625 -10.34375 13.0625 -9.628906 13.0625 -8.921875 L 13.0625 0 C 13.0625 0.113281 13.050781 0.191406 13.03125 0.234375 C 12.9375 0.390625 12.5625 0.46875 11.90625 0.46875 C 11.25 0.46875 10.570312 0.414062 9.875 0.3125 C 9.1875 0.21875 8.84375 0.113281 8.84375 0 L 8.84375 -10.015625 C 8.800781 -11.484375 8.644531 -12.21875 8.375 -12.21875 C 7.664062 -12.21875 6.722656 -11.863281 5.546875 -11.15625 L 5.546875 0 C 5.546875 0.113281 5.535156 0.191406 5.515625 0.234375 C 5.421875 0.390625 5.046875 0.46875 4.390625 0.46875 C 3.734375 0.46875 3.054688 0.414062 2.359375 0.3125 C 1.671875 0.21875 1.328125 0.113281 1.328125 0 L 1.328125 -14.5625 C 1.328125 -14.875 1.71875 -15.03125 2.5 -15.03125 C 3.726562 -15.03125 4.429688 -14.875 4.609375 -14.5625 C 4.609375 -14.519531 4.617188 -14.5 4.640625 -14.5 L 5.203125 -13.390625 C 6.835938 -14.484375 8.054688 -15.03125 8.859375 -15.03125 C 10.585938 -15.03125 11.753906 -14.40625 12.359375 -13.15625 C 14.160156 -14.40625 15.5 -15.03125 16.375 -15.03125 C 17.832031 -15.03125 18.894531 -14.578125 19.5625 -13.671875 C 20.238281 -12.773438 20.578125 -11.191406 20.578125 -8.921875 L 20.578125 0 C 20.578125 0.113281 20.566406 0.191406 20.546875 0.234375 C 20.453125 0.390625 20.078125 0.46875 19.421875 0.46875 C 18.765625 0.46875 18.085938 0.414062 17.390625 0.3125 C 16.703125 0.21875 16.359375 0.113281 16.359375 0 Z M 16.359375 0 "/></g></g><g style="fill:#000000;fill-opacity:1;"><g transform="translate(195.200053, 65.334619)"><path style="stroke:none" d="M 8.578125 -15.03125 C 10.023438 -15.03125 11.082031 -14.4375 11.75 -13.25 C 12.425781 -12.070312 12.765625 -10.015625 12.765625 -7.078125 C 12.765625 -4.140625 12.335938 -2.144531 11.484375 -1.09375 C 10.640625 -0.0507812 9.035156 0.46875 6.671875 0.46875 L 5.25 0.46875 L 5.25 6.578125 C 5.25 6.691406 5.238281 6.769531 5.21875 6.8125 C 5.125 6.96875 4.753906 7.046875 4.109375 7.046875 C 3.460938 7.046875 2.835938 6.992188 2.234375 6.890625 C 1.628906 6.796875 1.328125 6.691406 1.328125 6.578125 L 1.328125 -14.5625 C 1.328125 -14.875 1.785156 -15.03125 2.703125 -15.03125 C 3.617188 -15.03125 4.164062 -14.851562 4.34375 -14.5 L 4.90625 -13.390625 C 6.550781 -14.484375 7.773438 -15.03125 8.578125 -15.03125 Z M 6.671875 -2.34375 C 7.390625 -2.34375 7.878906 -2.640625 8.140625 -3.234375 C 8.410156 -3.835938 8.546875 -4.847656 8.546875 -6.265625 C 8.546875 -7.679688 8.539062 -8.613281 8.53125 -9.0625 C 8.519531 -9.519531 8.503906 -10.039062 8.484375 -10.625 C 8.441406 -11.6875 8.304688 -12.21875 8.078125 -12.21875 C 7.367188 -12.21875 6.425781 -11.863281 5.25 -11.15625 L 5.25 -2.34375 Z M 6.671875 -2.34375 "/></g></g><g style="fill:#000000;fill-opacity:1;"><g transform="translate(211.433377, 65.334619)"><path style="stroke:none" d="M 5.28125 0 C 5.28125 0.113281 5.257812 0.191406 5.21875 0.234375 C 5.144531 0.390625 4.785156 0.46875 4.140625 0.46875 C 3.492188 0.46875 2.863281 0.414062 2.25 0.3125 C 1.632812 0.21875 1.328125 0.113281 1.328125 0 L 1.328125 -22.078125 C 1.328125 -22.390625 1.664062 -22.546875 2.34375 -22.546875 C 3.03125 -22.546875 3.597656 -22.5 4.046875 -22.40625 C 4.503906 -22.320312 4.738281 -22.210938 4.75 -22.078125 L 5.28125 -12.65625 Z M 5.28125 0 "/></g></g><g style="fill:#000000;fill-opacity:1;"><g transform="translate(220.885933, 65.334619)"><path style="stroke:none" d="M 1.375 0 L 1.375 -14.5625 C 1.375 -14.875 1.726562 -15.03125 2.4375 -15.03125 C 3.144531 -15.03125 3.8125 -14.976562 4.4375 -14.875 C 5.0625 -14.78125 5.375 -14.675781 5.375 -14.5625 L 5.375 0 C 5.375 0.113281 5.363281 0.191406 5.34375 0.234375 C 5.25 0.390625 4.878906 0.46875 4.234375 0.46875 C 3.585938 0.46875 2.945312 0.414062 2.3125 0.3125 C 1.6875 0.21875 1.375 0.113281 1.375 0 Z M 3.203125 -18.3125 C 1.796875 -18.3125 1.09375 -19.015625 1.09375 -20.421875 C 1.09375 -21.835938 1.796875 -22.546875 3.203125 -22.546875 C 4.609375 -22.546875 5.3125 -21.835938 5.3125 -20.421875 C 5.3125 -19.015625 4.609375 -18.3125 3.203125 -18.3125 Z M 3.203125 -18.3125 "/></g></g><g style="fill:#000000;fill-opacity:1;"><g transform="translate(230.485259, 65.334619)"><path style="stroke:none" d="M 10.78125 -19.203125 C 10.207031 -19.453125 9.519531 -19.578125 8.71875 -19.578125 C 7.914062 -19.578125 7.394531 -19.203125 7.15625 -18.453125 C 6.925781 -17.710938 6.8125 -16.414062 6.8125 -14.5625 L 9.625 -14.5625 C 9.9375 -14.5625 10.09375 -14.171875 10.09375 -13.390625 C 10.09375 -12.609375 9.9375 -12.21875 9.625 -12.21875 L 7.046875 -12.21875 L 7.046875 6.578125 C 7.046875 6.691406 7.023438 6.769531 6.984375 6.8125 C 6.910156 6.96875 6.546875 7.046875 5.890625 7.046875 C 5.234375 7.046875 4.570312 6.992188 3.90625 6.890625 C 3.238281 6.796875 2.90625 6.691406 2.90625 6.578125 L 2.90625 -12.21875 L 0.5625 -12.21875 C 0.320312 -12.21875 0.1875 -12.269531 0.15625 -12.375 C 0.132812 -12.476562 0.125 -12.597656 0.125 -12.734375 C 0.125 -13.578125 0.269531 -14.03125 0.5625 -14.09375 L 2.90625 -14.5625 C 2.90625 -17.71875 3.320312 -19.835938 4.15625 -20.921875 C 4.988281 -22.003906 6.597656 -22.546875 8.984375 -22.546875 C 10.523438 -22.546875 11.738281 -22.210938 12.625 -21.546875 L 12.65625 -21.546875 C 12.832031 -21.453125 12.921875 -21.28125 12.921875 -21.03125 C 12.921875 -20.789062 12.878906 -20.515625 12.796875 -20.203125 C 12.722656 -19.890625 12.628906 -19.601562 12.515625 -19.34375 C 12.410156 -19.09375 12.304688 -18.914062 12.203125 -18.8125 C 12.109375 -18.71875 12.023438 -18.679688 11.953125 -18.703125 C 11.890625 -18.722656 11.859375 -18.742188 11.859375 -18.765625 Z M 10.78125 -19.203125 "/></g></g><g style="fill:#000000;fill-opacity:1;"><g transform="translate(244.252846, 65.334619)"><path style="stroke:none" d="M 1.375 0 L 1.375 -14.5625 C 1.375 -14.875 1.726562 -15.03125 2.4375 -15.03125 C 3.144531 -15.03125 3.8125 -14.976562 4.4375 -14.875 C 5.0625 -14.78125 5.375 -14.675781 5.375 -14.5625 L 5.375 0 C 5.375 0.113281 5.363281 0.191406 5.34375 0.234375 C 5.25 0.390625 4.878906 0.46875 4.234375 0.46875 C 3.585938 0.46875 2.945312 0.414062 2.3125 0.3125 C 1.6875 0.21875 1.375 0.113281 1.375 0 Z M 3.203125 -18.3125 C 1.796875 -18.3125 1.09375 -19.015625 1.09375 -20.421875 C 1.09375 -21.835938 1.796875 -22.546875 3.203125 -22.546875 C 4.609375 -22.546875 5.3125 -21.835938 5.3125 -20.421875 C 5.3125 -19.015625 4.609375 -18.3125 3.203125 -18.3125 Z M 3.203125 -18.3125 "/></g></g><g style="fill:#000000;fill-opacity:1;"><g transform="translate(253.852173, 65.334619)"><path style="stroke:none" d="M 10.890625 -14.03125 C 11.023438 -13.957031 11.09375 -13.773438 11.09375 -13.484375 C 11.09375 -13.203125 11.023438 -12.828125 10.890625 -12.359375 C 10.640625 -11.492188 10.363281 -11.132812 10.0625 -11.28125 L 10.046875 -11.28125 L 9.015625 -11.6875 C 8.441406 -11.9375 7.75 -12.0625 6.9375 -12.0625 C 6.125 -12.0625 5.601562 -11.726562 5.375 -11.0625 C 5.15625 -10.394531 5.046875 -9.113281 5.046875 -7.21875 C 5.046875 -5.320312 5.1875 -4.046875 5.46875 -3.390625 C 5.757812 -2.734375 6.304688 -2.40625 7.109375 -2.40625 C 8.265625 -2.40625 9.164062 -2.472656 9.8125 -2.609375 C 10.457031 -2.742188 10.785156 -2.8125 10.796875 -2.8125 C 10.941406 -2.851562 11.054688 -2.773438 11.140625 -2.578125 C 11.234375 -2.390625 11.28125 -1.929688 11.28125 -1.203125 C 11.28125 -0.484375 11.117188 -0.0820312 10.796875 0 C 9.585938 0.3125 8.394531 0.46875 7.21875 0.46875 C 4.851562 0.46875 3.234375 -0.09375 2.359375 -1.21875 C 1.492188 -2.34375 1.0625 -4.382812 1.0625 -7.34375 C 1.0625 -9.476562 1.25 -11.085938 1.625 -12.171875 C 2.007812 -13.253906 2.625 -14 3.46875 -14.40625 C 4.3125 -14.820312 5.535156 -15.03125 7.140625 -15.03125 C 8.742188 -15.03125 9.984375 -14.695312 10.859375 -14.03125 Z M 10.890625 -14.03125 "/></g></g><g style="fill:#000000;fill-opacity:1;"><g transform="translate(268.852634, 65.334619)"><path style="stroke:none" d="M 8.046875 -0.90625 C 7.023438 0.0078125 6.117188 0.46875 5.328125 0.46875 C 4.535156 0.46875 3.894531 0.410156 3.40625 0.296875 C 2.914062 0.191406 2.472656 -0.0351562 2.078125 -0.390625 C 1.691406 -0.753906 1.421875 -1.28125 1.265625 -1.96875 C 1.109375 -2.65625 1.03125 -3.566406 1.03125 -4.703125 C 1.03125 -6.285156 1.800781 -7.367188 3.34375 -7.953125 L 7.546875 -9.046875 C 7.523438 -10.316406 7.394531 -11.132812 7.15625 -11.5 C 6.925781 -11.875 6.421875 -12.0625 5.640625 -12.0625 C 4.859375 -12.0625 4.179688 -11.9375 3.609375 -11.6875 L 2.578125 -11.28125 L 2.546875 -11.28125 C 2.378906 -11.175781 2.222656 -11.253906 2.078125 -11.515625 C 1.734375 -12.253906 1.5625 -12.832031 1.5625 -13.25 C 1.5625 -13.675781 1.59375 -13.910156 1.65625 -13.953125 C 1.726562 -14.003906 1.765625 -14.039062 1.765625 -14.0625 C 2.742188 -14.707031 4.007812 -15.03125 5.5625 -15.03125 C 7.113281 -15.03125 8.3125 -14.820312 9.15625 -14.40625 C 10 -14 10.609375 -13.253906 10.984375 -12.171875 C 11.367188 -11.085938 11.5625 -9.476562 11.5625 -7.34375 L 11.515625 0 C 11.515625 0.113281 11.492188 0.191406 11.453125 0.234375 C 11.367188 0.390625 10.992188 0.46875 10.328125 0.46875 C 9.117188 0.46875 8.515625 0.3125 8.515625 0 Z M 4.28125 -4.640625 C 4.28125 -3.234375 4.691406 -2.488281 5.515625 -2.40625 C 6.085938 -2.40625 6.5 -2.503906 6.75 -2.703125 C 7.300781 -3.078125 7.578125 -4.46875 7.578125 -6.875 C 6.554688 -6.738281 5.75 -6.457031 5.15625 -6.03125 C 4.570312 -5.613281 4.28125 -5.148438 4.28125 -4.640625 Z M 4.28125 -4.640625 "/></g></g><g style="fill:#000000;fill-opacity:1;"><g transform="translate(284.557587, 65.334619)"><path style="stroke:none" d="M 12.09375 -0.609375 L 12.09375 -13.953125 L 10.1875 -10.390625 L 7.21875 -10.390625 L 5.4375 -13.890625 L 5.4375 -0.640625 C 5.4375 -0.296875 5.425781 -0.0625 5.40625 0.0625 C 5.320312 0.332031 4.9375 0.46875 4.25 0.46875 C 2.300781 0.46875 1.328125 0.109375 1.328125 -0.609375 L 1.328125 -21.4375 C 1.328125 -22.175781 2 -22.546875 3.34375 -22.546875 C 4.695312 -22.546875 5.507812 -22.1875 5.78125 -21.46875 L 8.75 -13.890625 L 11.859375 -21.484375 C 12.015625 -21.921875 12.203125 -22.207031 12.421875 -22.34375 C 12.648438 -22.476562 13.050781 -22.546875 13.625 -22.546875 C 15.03125 -22.546875 15.742188 -22.164062 15.765625 -21.40625 L 16.234375 -12.65625 L 16.234375 -0.828125 C 16.234375 -0.234375 16.175781 0.128906 16.0625 0.265625 C 15.957031 0.398438 15.609375 0.46875 15.015625 0.46875 C 14.421875 0.46875 13.9375 0.445312 13.5625 0.40625 C 13.1875 0.375 12.847656 0.273438 12.546875 0.109375 C 12.242188 -0.0546875 12.09375 -0.296875 12.09375 -0.609375 Z M 12.09375 -0.609375 "/></g></g><g style="fill:#000000;fill-opacity:1;"><g transform="translate(305.017882, 65.334619)"><path style="stroke:none" d="M 6.671875 0.46875 C 4.566406 0.46875 3.109375 -0.0976562 2.296875 -1.234375 C 1.492188 -2.367188 1.09375 -4.40625 1.09375 -7.34375 C 1.09375 -9.457031 1.273438 -11.066406 1.640625 -12.171875 C 2.015625 -13.273438 2.578125 -14.023438 3.328125 -14.421875 C 4.085938 -14.828125 5.195312 -15.03125 6.65625 -15.03125 C 8.125 -15.03125 9.234375 -14.820312 9.984375 -14.40625 C 10.742188 -14 11.300781 -13.238281 11.65625 -12.125 C 12.007812 -11.007812 12.1875 -9.425781 12.1875 -7.375 C 12.1875 -7.25 12.1875 -7.128906 12.1875 -7.015625 C 12.1875 -6.898438 11.953125 -6.789062 11.484375 -6.6875 C 11.023438 -6.59375 10.472656 -6.546875 9.828125 -6.546875 L 5.3125 -6.546875 C 5.351562 -4.253906 5.519531 -2.953125 5.8125 -2.640625 C 5.988281 -2.484375 6.273438 -2.40625 6.671875 -2.40625 C 9.234375 -2.40625 10.984375 -2.535156 11.921875 -2.796875 C 11.960938 -2.804688 11.992188 -2.8125 12.015625 -2.8125 C 12.148438 -2.851562 12.257812 -2.773438 12.34375 -2.578125 C 12.4375 -2.390625 12.484375 -1.929688 12.484375 -1.203125 C 12.484375 -0.484375 12.328125 -0.0820312 12.015625 0 C 11.203125 0.3125 9.421875 0.46875 6.671875 0.46875 Z M 5.3125 -11.1875 L 5.3125 -8.890625 L 8.28125 -8.890625 C 8.195312 -11.160156 7.972656 -12.296875 7.609375 -12.296875 C 6.941406 -12.296875 6.390625 -12.195312 5.953125 -12 C 5.523438 -11.8125 5.3125 -11.539062 5.3125 -11.1875 Z M 5.3125 -11.1875 "/></g></g><g style="fill:#000000;fill-opacity:1;"><g transform="translate(321.280556, 65.334619)"><path style="stroke:none" d="M 4.703125 0.46875 C 3.253906 0.46875 2.191406 -0.117188 1.515625 -1.296875 C 0.835938 -2.484375 0.5 -4.546875 0.5 -7.484375 C 0.5 -10.421875 0.921875 -12.410156 1.765625 -13.453125 C 2.617188 -14.503906 4.234375 -15.03125 6.609375 -15.03125 L 8.015625 -15.03125 L 8.015625 -22.078125 C 8.015625 -22.390625 8.351562 -22.546875 9.03125 -22.546875 C 9.71875 -22.546875 10.285156 -22.5 10.734375 -22.40625 C 11.191406 -22.320312 11.429688 -22.210938 11.453125 -22.078125 L 11.953125 -12.71875 L 11.953125 0 C 11.953125 0.113281 11.941406 0.191406 11.921875 0.234375 C 11.816406 0.390625 11.453125 0.46875 10.828125 0.46875 C 10.203125 0.46875 9.671875 0.421875 9.234375 0.328125 C 8.796875 0.242188 8.578125 0.132812 8.578125 0 L 8.015625 -0.90625 C 7.441406 -0.539062 7.039062 -0.28125 6.8125 -0.125 C 6.164062 0.269531 5.460938 0.46875 4.703125 0.46875 Z M 6.609375 -12.21875 C 5.878906 -12.21875 5.382812 -11.914062 5.125 -11.3125 C 4.863281 -10.71875 4.734375 -9.710938 4.734375 -8.296875 C 4.734375 -6.878906 4.734375 -5.941406 4.734375 -5.484375 C 4.742188 -5.035156 4.757812 -4.519531 4.78125 -3.9375 C 4.820312 -2.875 4.960938 -2.34375 5.203125 -2.34375 C 5.898438 -2.34375 6.835938 -2.695312 8.015625 -3.40625 L 8.015625 -12.21875 Z M 6.609375 -12.21875 "/></g></g></g></svg>